<svg width="48" height="51" viewBox="0 0 48 51" fill="none" xmlns="http://www.w3.org/2000/svg">
<g clip-path="url(#clip0)" filter="url(#filter0_d)">
<path d="M22.4 43L12.95 26.5V24.3H14.05C16.7167 24.3 18.75 23.9167 20.15 23.15C21.5833 22.3833 22.4167 21 22.65 19H12.95V15.8H22.6C22.2667 13.9333 21.3833 12.5833 19.95 11.75C18.55 10.9167 16.5833 10.5 14.05 10.5H12.95V7.3H33.65V10.5H24.2C25.8 11.8 26.75 13.5667 27.05 15.8H33.65V19H27.15C26.9167 21.4333 25.9833 23.3333 24.35 24.7C22.75 26.0333 20.6167 26.8833 17.95 27.25L27.5 43H22.4Z" fill="#14CBA7"/>
</g>
<defs>
<filter id="filter0_d" x="-4" y="0" width="56" height="56" filterUnits="userSpaceOnUse" color-interpolation-filters="sRGB">
<feFlood flood-opacity="0" result="BackgroundImageFix"/>
<feColorMatrix in="SourceAlpha" type="matrix" values="0 0 0 0 0 0 0 0 0 0 0 0 0 0 0 0 0 0 127 0" result="hardAlpha"/>
<feOffset dy="4"/>
<feGaussianBlur stdDeviation="2"/>
<feColorMatrix type="matrix" values="0 0 0 0 0 0 0 0 0 0 0 0 0 0 0 0 0 0 0.25 0"/>
<feBlend mode="normal" in2="BackgroundImageFix" result="effect1_dropShadow"/>
<feBlend mode="normal" in="SourceGraphic" in2="effect1_dropShadow" result="shape"/>
</filter>
<clipPath id="clip0">
<rect width="48" height="48" fill="white"/>
</clipPath>
</defs>
</svg>
