<svg width="48" height="52" viewBox="0 0 48 52" fill="none" xmlns="http://www.w3.org/2000/svg">
<g clip-path="url(#clip0)" filter="url(#filter0_d)">
<path d="M23.204 44L13.187 26.51V24.178H14.353C17.1797 24.178 19.335 23.7717 20.819 22.959C22.3383 22.1463 23.2217 20.68 23.469 18.56H13.187V15.168H23.416C23.0627 13.1893 22.1263 11.7583 20.607 10.875C19.123 9.99167 17.0383 9.55 14.353 9.55H13.187V6.158H35.129V9.55H25.112C26.808 10.928 27.815 12.8007 28.133 15.168H35.129V18.56H28.239C27.9917 21.1393 27.0023 23.1533 25.271 24.602C23.575 26.0153 21.3137 26.9163 18.487 27.305L28.61 44H23.204Z" fill="#14CBA7"/>
</g>
<defs>
<filter id="filter0_d" x="-4" y="0" width="56" height="56" filterUnits="userSpaceOnUse" color-interpolation-filters="sRGB">
<feFlood flood-opacity="0" result="BackgroundImageFix"/>
<feColorMatrix in="SourceAlpha" type="matrix" values="0 0 0 0 0 0 0 0 0 0 0 0 0 0 0 0 0 0 127 0" result="hardAlpha"/>
<feOffset dy="4"/>
<feGaussianBlur stdDeviation="2"/>
<feColorMatrix type="matrix" values="0 0 0 0 0 0 0 0 0 0 0 0 0 0 0 0 0 0 0.25 0"/>
<feBlend mode="normal" in2="BackgroundImageFix" result="effect1_dropShadow"/>
<feBlend mode="normal" in="SourceGraphic" in2="effect1_dropShadow" result="shape"/>
</filter>
<clipPath id="clip0">
<rect width="48" height="48" fill="white"/>
</clipPath>
</defs>
</svg>
